# xmcd
# 
# Track frame offsets:
#     150
#     17480
#     30217
#     53424
#     74419
#     92994
#     116471
#     138377
#     157526
#     170930
#     191788
# 
# Disc length: 2797
# 
# Revision: 1
# Processed by: cddbd v1.5.2PL0 Copyright (c) Steve Scherf et al.
# Submitted via: fre:ac v1.0.27
# 
DISCID=860aeb0b
DTITLE=Paul Mark and the Van Dorens - Blood and Treasure
DYEAR=2008
DGENRE=Blues Rock
TTITLE0=Everything Is Nothing
TTITLE1=Don't Get Me Started
TTITLE2=Perp Walk
TTITLE3=Raise the Roof
TTITLE4=Lotta Things To Say
TTITLE5=Let Them Talk
TTITLE6=Feed the Machine
TTITLE7=I'm Still High
TTITLE8=Wrong Pair of Shoes
TTITLE9=Extraordinary Measures
TTITLE10=Ruff House
EXTD=
EXTT0=
EXTT1=
EXTT2=
EXTT3=
EXTT4=
EXTT5=
EXTT6=
EXTT7=
EXTT8=
EXTT9=
EXTT10=
PLAYORDER=
